<svg width="157" height="31" viewBox="0 0 157 31" fill="none" xmlns="http://www.w3.org/2000/svg">
<path d="M3.85063 22.1528C2.63464 21.5036 1.70239 20.5704 1.01332 19.4343C0.324264 18.2576 0 16.9591 0 15.4984C0 14.0377 0.364797 12.7392 1.05386 11.5625C1.74292 10.3858 2.67518 9.49315 3.89117 8.84394C5.10716 8.19472 6.44475 7.87012 7.94447 7.87012C9.16046 7.87012 10.2548 8.073 11.2682 8.51933C12.2815 8.92509 13.1327 9.57431 13.8218 10.3452L12.0383 12.0089C10.9844 10.8322 9.64685 10.2641 8.06607 10.2641C7.05274 10.2641 6.12048 10.467 5.35036 10.9133C4.5397 11.3596 3.9317 11.9683 3.4453 12.7798C2.99944 13.5913 2.75624 14.484 2.75624 15.4578C2.75624 16.4722 2.99944 17.3649 3.4453 18.1358C3.89117 18.9473 4.5397 19.556 5.35036 20.0023C6.16102 20.4486 7.05274 20.6515 8.06607 20.6515C9.64685 20.6515 10.9439 20.0835 12.0383 18.9068L13.8218 20.611C13.1327 21.4225 12.2815 22.0311 11.2682 22.4369C10.2548 22.8426 9.16046 23.0861 7.94447 23.0861C6.44475 23.1267 5.06662 22.8021 3.85063 22.1528Z" fill="#D61336"/>
<path d="M50.2191 8.7227C51.1919 9.12846 51.9215 9.7371 52.4079 10.5486C52.9348 11.3601 53.178 12.2934 53.178 13.3889C53.178 14.4439 52.9348 15.4177 52.4079 16.1887C51.8809 17.0002 51.1514 17.6088 50.2191 18.0146C49.2463 18.4203 48.1519 18.6638 46.8549 18.6638H43.4906V22.9648H40.7344V8.07349H46.8549C48.1519 8.07349 49.2868 8.31694 50.2191 8.7227ZM49.4895 15.5395C50.0975 15.012 50.4218 14.3222 50.4218 13.3484C50.4218 12.4151 50.0975 11.6847 49.4895 11.1573C48.8815 10.6298 47.9492 10.3863 46.7738 10.3863H43.5717V16.2698H46.7738C47.9492 16.3104 48.841 16.0669 49.4895 15.5395Z" fill="#D61336"/>
<path d="M39.3971 16.1899L34.6547 31.0002H29.3043L26.9129 23.0878L24.3999 31.0002H19.009L14.2666 16.1899H19.4143L22.0084 24.6297L24.7241 16.1899H29.3043L31.8985 24.7515L34.6142 16.1899H39.3971Z" fill="#D61336"/>
<path d="M34.6547 14.8508L31.939 6.28927L29.3449 14.8508H24.7241L22.0084 6.41099L19.4143 14.8508H14.2666L19.009 0H24.3593L26.8724 7.9123L29.3043 0H34.6547L39.3971 14.8508H34.6547Z" fill="#D61336"/>
<path d="M62.6697 15.0157C62.1022 14.6911 61.6564 14.2448 61.3321 13.7173C61.0078 13.1492 60.8457 12.5406 60.8457 11.8508C60.8457 11.161 61.0078 10.5118 61.3321 9.98431C61.6564 9.41625 62.1022 9.01049 62.7102 8.68589C63.2777 8.36128 63.9262 8.19897 64.6558 8.19897C65.2233 8.19897 65.7097 8.28013 66.1961 8.48301C66.6825 8.68589 67.0472 8.92934 67.3715 9.3351L66.723 9.98431C66.1961 9.41625 65.507 9.13222 64.6963 9.13222C64.1694 9.13222 63.683 9.25395 63.2371 9.4974C62.7913 9.74086 62.467 10.0655 62.2238 10.4712C61.9806 10.877 61.859 11.3639 61.859 11.8914C61.859 12.4189 61.9806 12.8652 62.2238 13.3115C62.467 13.7173 62.7913 14.0419 63.2371 14.2854C63.683 14.5288 64.1289 14.6505 64.6963 14.6505C65.507 14.6505 66.1555 14.3665 66.723 13.7985L67.3715 14.4477C67.0472 14.8128 66.6419 15.0969 66.1961 15.2998C65.7097 15.5026 65.2233 15.5838 64.6558 15.5838C63.8857 15.5026 63.2371 15.3403 62.6697 15.0157Z" fill="#0D1823"/>
<path d="M69.9238 15.0157C69.3564 14.6911 68.87 14.2448 68.5457 13.7173C68.2215 13.1898 68.0593 12.5406 68.0593 11.8508C68.0593 11.161 68.2215 10.5524 68.5457 9.98431C68.87 9.41625 69.3159 8.96992 69.9238 8.68589C70.4913 8.36128 71.1398 8.19897 71.8694 8.19897C72.599 8.19897 73.2476 8.36128 73.815 8.68589C74.3825 9.01049 74.8283 9.45683 75.1931 9.98431C75.5174 10.5524 75.6795 11.161 75.6795 11.8508C75.6795 12.5406 75.5174 13.1898 75.1931 13.7173C74.8689 14.2854 74.423 14.6911 73.815 15.0157C73.2476 15.3403 72.599 15.5026 71.8694 15.5026C71.1398 15.5026 70.4913 15.3403 69.9238 15.0157ZM73.2881 14.2448C73.6934 14.0013 74.0177 13.6767 74.2609 13.271C74.5041 12.8652 74.6257 12.3783 74.6257 11.8508C74.6257 11.3233 74.5041 10.877 74.2609 10.4306C74.0177 9.98431 73.6934 9.70028 73.2881 9.45683C72.8828 9.21337 72.3964 9.09164 71.8694 9.09164C71.3425 9.09164 70.8561 9.21337 70.4508 9.45683C70.0049 9.70028 69.6806 10.0249 69.4375 10.4306C69.1943 10.8364 69.0727 11.3233 69.0727 11.8508C69.0727 12.3783 69.1943 12.8246 69.4375 13.271C69.6806 13.6767 70.0049 14.0013 70.4508 14.2448C70.8561 14.4882 71.3425 14.61 71.8694 14.61C72.3964 14.5694 72.8422 14.4882 73.2881 14.2448Z" fill="#0D1823"/>
<path d="M83.8701 15.4207V10.1864L81.276 14.528H80.7896L78.1954 10.227V15.4207H77.2227V8.23877H78.0739L81.0733 13.2702L84.0322 8.23877H84.8834V15.3801H83.8701V15.4207Z" fill="#0D1823"/>
<path d="M93.5959 15.4207V10.1864L91.0018 14.528H90.5154L87.9618 10.227V15.4207H86.989V8.23877H87.8402L90.8396 13.2702L93.7986 8.23877H94.6497V15.3801H93.5959V15.4207Z" fill="#0D1823"/>
<path d="M98.0144 15.0157C97.447 14.6911 96.9606 14.2448 96.6363 13.7173C96.312 13.1898 96.1499 12.5406 96.1499 11.8508C96.1499 11.161 96.312 10.5524 96.6363 9.98431C96.9606 9.41625 97.4064 8.96992 98.0144 8.68589C98.5819 8.36128 99.2304 8.19897 99.96 8.19897C100.69 8.19897 101.338 8.36128 101.906 8.68589C102.473 9.01049 102.919 9.45683 103.284 9.98431C103.608 10.5524 103.77 11.161 103.77 11.8508C103.77 12.5406 103.608 13.1898 103.284 13.7173C102.959 14.2854 102.514 14.6911 101.906 15.0157C101.338 15.3403 100.69 15.5026 99.96 15.5026C99.2304 15.5026 98.5819 15.3403 98.0144 15.0157ZM101.379 14.2448C101.784 14.0013 102.108 13.6767 102.351 13.271C102.595 12.8652 102.716 12.3783 102.716 11.8508C102.716 11.3233 102.595 10.877 102.351 10.4306C102.108 10.0249 101.784 9.70028 101.379 9.45683C100.973 9.21337 100.487 9.09164 99.96 9.09164C99.4331 9.09164 98.9467 9.21337 98.5414 9.45683C98.0955 9.70028 97.7712 10.0249 97.528 10.4306C97.2848 10.8364 97.1632 11.3233 97.1632 11.8508C97.1632 12.3783 97.2848 12.8246 97.528 13.271C97.7712 13.6767 98.0955 14.0013 98.5414 14.2448C98.9467 14.4882 99.4331 14.61 99.96 14.61C100.487 14.5694 100.973 14.4882 101.379 14.2448Z" fill="#0D1823"/>
<path d="M111.474 8.23877V15.4207H110.623L106.327 10.0647V15.4207H105.313V8.23877H106.164L110.461 13.5948V8.23877H111.474Z" fill="#0D1823"/>
<path d="M123.632 8.23877L121.241 15.4207H120.187L118.241 9.6995L116.296 15.4207H115.201L112.81 8.27935H113.864L115.809 14.0817L117.836 8.27935H118.768L120.754 14.1223L122.74 8.27935H123.632V8.23877Z" fill="#0D1823"/>
<path d="M130.074 14.528V15.4207H124.886V8.23877H129.952V9.13144H125.94V11.3631H129.507V12.2152H125.94V14.528H130.074Z" fill="#0D1823"/>
<path d="M136.28 13.6368H132.469L131.699 15.4221H130.646L133.888 8.28076H134.901L138.144 15.4221H137.09L136.28 13.6368ZM135.955 12.8253L134.415 9.33574L132.875 12.8253H135.955Z" fill="#0D1823"/>
<path d="M139.234 8.23877H140.247V14.528H144.138V15.4207H139.234V8.23877Z" fill="#0D1823"/>
<path d="M146.047 9.13144H143.575V8.23877H149.493V9.13144H147.061V15.4207H146.047V9.13144Z" fill="#0D1823"/>
<path d="M156.787 8.23877V15.4207H155.774V12.2152H151.68V15.4207H150.667V8.23877H151.68V11.3225H155.774V8.23877H156.787Z" fill="#0D1823"/>
<path d="M64.5342 17.9391C64.899 18.1014 65.1422 18.3043 65.3448 18.6289C65.5475 18.9129 65.6286 19.2781 65.6286 19.6433C65.6286 20.049 65.5475 20.3736 65.3448 20.6577C65.1422 20.9417 64.899 21.1852 64.5342 21.3475C64.1694 21.5098 63.7641 21.5909 63.3182 21.5909H62.2238V23.0517H60.9673V17.7362H63.2777C63.7641 17.7362 64.1694 17.7768 64.5342 17.9391ZM64.0478 20.3331C64.2505 20.1708 64.3315 19.9273 64.3315 19.6433C64.3315 19.3592 64.2505 19.1158 64.0478 18.9535C63.8451 18.7912 63.5614 18.71 63.1966 18.71H62.1833V20.5765H63.1966C63.6019 20.5765 63.8857 20.4954 64.0478 20.3331Z" fill="#0D1823"/>
<path d="M73.6563 21.9141H71.1838L70.6974 23.0502H69.4409L71.8324 17.6942H73.0484L75.4398 23.0502H74.1427L73.6563 21.9141ZM73.2916 20.9809L72.4404 18.9115L71.5892 20.9809H73.2916Z" fill="#0D1823"/>
<path d="M83.3398 23.0922L82.3265 21.5909H82.2454H81.1511V23.0922H79.8945V17.7362H82.2049C82.6913 17.7362 83.0966 17.8174 83.4209 17.9797C83.7857 18.142 84.0289 18.3448 84.2316 18.6695C84.4342 18.9535 84.5153 19.3187 84.5153 19.6838C84.5153 20.0896 84.4342 20.4142 84.2316 20.6982C84.0289 20.9823 83.7857 21.2257 83.4209 21.3475L84.6369 23.0517H83.3398V23.0922ZM83.0156 18.9535C82.8129 18.7912 82.5292 18.71 82.1644 18.71H81.1511V20.5765H82.1644C82.5292 20.5765 82.8129 20.4954 83.0156 20.3331C83.2182 20.1708 83.2993 19.9273 83.2993 19.6433C83.2993 19.3592 83.2182 19.1158 83.0156 18.9535Z" fill="#0D1823"/>
<path d="M90.4751 18.7086H88.7727V17.6942H93.434V18.7086H91.7316V23.0502H90.4751V18.7086Z" fill="#0D1823"/>
<path d="M102.96 17.7362V23.0922H101.946L99.2712 19.8462V23.0922H98.0552V17.7362H99.0685L101.744 20.9823V17.7362H102.96Z" fill="#0D1823"/>
<path d="M112.281 22.0778V23.0922H108.146V17.7362H112.2V18.7506H109.403V19.8867H111.876V20.8606H109.403V22.1184H112.281V22.0778Z" fill="#0D1823"/>
<path d="M120.591 23.0922L119.578 21.5909H119.497H118.403V23.0922H117.146V17.7362H119.456C119.943 17.7362 120.348 17.8174 120.672 17.9797C121.037 18.142 121.28 18.3448 121.483 18.6695C121.686 18.9535 121.767 19.3187 121.767 19.6838C121.767 20.0896 121.686 20.4142 121.483 20.6982C121.28 20.9823 121.037 21.2257 120.672 21.3475L121.888 23.0517H120.591V23.0922ZM120.267 18.9535C120.064 18.7912 119.781 18.71 119.416 18.71H118.403V20.5765H119.416C119.781 20.5765 120.064 20.4954 120.267 20.3331C120.47 20.1708 120.551 19.9273 120.551 19.6433C120.591 19.3592 120.47 19.1158 120.267 18.9535Z" fill="#0D1823"/>
<path d="M127.24 23.0104C126.835 22.8887 126.511 22.7264 126.267 22.5641L126.673 21.6309C126.916 21.7932 127.159 21.9149 127.483 22.0366C127.808 22.1583 128.132 22.1989 128.416 22.1989C128.78 22.1989 129.024 22.1583 129.186 22.0366C129.348 21.9149 129.429 21.7932 129.429 21.6309C129.429 21.5091 129.388 21.3874 129.267 21.3063C129.186 21.2251 129.024 21.1439 128.902 21.1034C128.74 21.0628 128.537 20.9816 128.253 20.9411C127.848 20.8599 127.524 20.7382 127.24 20.657C126.997 20.5759 126.754 20.4136 126.551 20.1701C126.348 19.9672 126.267 19.6832 126.267 19.318C126.267 18.9934 126.348 18.7094 126.511 18.4659C126.673 18.2225 126.916 18.0196 127.281 17.8573C127.605 17.695 128.051 17.6544 128.537 17.6544C128.861 17.6544 129.226 17.695 129.551 17.7761C129.875 17.8573 130.159 17.979 130.402 18.1413L130.037 19.0746C129.551 18.7905 129.064 18.6688 128.537 18.6688C128.172 18.6688 127.929 18.7094 127.767 18.8311C127.605 18.9528 127.524 19.0746 127.524 19.2775C127.524 19.4803 127.605 19.6021 127.808 19.6832C128.01 19.7644 128.294 19.8455 128.699 19.9672C129.105 20.0484 129.429 20.1701 129.713 20.2513C129.956 20.3324 130.199 20.4947 130.402 20.6976C130.604 20.9005 130.685 21.1845 130.685 21.5497C130.685 21.8743 130.604 22.1178 130.442 22.4018C130.28 22.6453 129.996 22.8481 129.672 23.0104C129.348 23.1727 128.902 23.2133 128.416 23.2133C128.051 23.1727 127.645 23.1322 127.24 23.0104Z" fill="#0D1823"/>
<path d="M140.453 17.7362V23.0922H139.196V20.9011H136.764V23.0922H135.508V17.7362H136.764V19.8462H139.196V17.7362H140.453Z" fill="#0D1823"/>
<path d="M145.641 17.7362H146.898V23.0922H145.641V17.7362Z" fill="#0D1823"/>
<path d="M155.613 17.9391C155.978 18.1014 156.221 18.3043 156.423 18.6289C156.626 18.9129 156.707 19.2781 156.707 19.6433C156.707 20.049 156.626 20.3736 156.423 20.6577C156.221 20.9417 155.978 21.1852 155.613 21.3475C155.248 21.5098 154.843 21.5909 154.397 21.5909H153.302V23.0517H152.046V17.7362H154.356C154.843 17.7362 155.248 17.7768 155.613 17.9391ZM155.167 20.3331C155.37 20.1708 155.451 19.9273 155.451 19.6433C155.451 19.3592 155.37 19.1158 155.167 18.9535C154.964 18.7912 154.681 18.71 154.316 18.71H153.302V20.5765H154.316C154.681 20.5765 154.964 20.4954 155.167 20.3331Z" fill="#0D1823"/>
</svg>
